<svg width="90" height="90" viewBox="0 0 90 90" fill="none" xmlns="http://www.w3.org/2000/svg">
<path fill-rule="evenodd" clip-rule="evenodd" d="M0.0102348 0.00012207L0 89.9897L89.9898 90.0001L90 0.0103569L0.0102348 0.00012207Z" fill="#ED2839"/>
<path fill-rule="evenodd" clip-rule="evenodd" d="M45.9211 66.3374C42.2779 66.3374 39.3138 62.8928 39.3138 58.6588C39.3138 54.425 42.2779 50.9804 45.9211 50.9804C49.5644 50.9804 52.5281 54.425 52.5281 58.6588C52.5281 62.8928 49.5644 66.3374 45.9211 66.3374ZM45.9211 47.8461C40.5498 47.8461 36.1797 52.6968 36.1797 58.6588C36.1797 64.621 40.5498 69.4717 45.9211 69.4717C51.2925 69.4717 55.6624 64.621 55.6624 58.6588C55.6624 52.6968 51.2925 47.8461 45.9211 47.8461Z" fill="white"/>
<path fill-rule="evenodd" clip-rule="evenodd" d="M61.6157 23.6856H64.5259V40.5635C64.5259 41.429 65.2276 42.1305 66.0932 42.1305C66.9587 42.1305 67.6602 41.429 67.6602 40.5635V22.1185C67.6602 21.2529 66.9587 20.5513 66.0932 20.5513H61.6157C60.7501 20.5513 60.0486 21.2529 60.0486 22.1185C60.0486 22.9839 60.7501 23.6856 61.6157 23.6856Z" fill="white"/>
<path fill-rule="evenodd" clip-rule="evenodd" d="M49.7794 38.6841C49.5173 38.8704 49.1622 38.9731 48.7793 38.9731H39.4998C38.6341 38.9731 37.9326 39.6749 37.9326 40.5403C37.9326 41.4057 38.6341 42.1074 39.4998 42.1074H48.7793C49.8227 42.1074 50.797 41.8069 51.5966 41.2378C52.7147 40.4419 53.9097 38.7546 53.9097 36.4051C53.9097 32.5136 51.1231 30.9001 49.631 30.5844L46.1735 29.7905C46.1715 29.7902 46.1697 29.7902 46.1679 29.7899L42.91 29.0417C42.6062 28.9685 41.0908 28.491 41.0908 26.2817C41.0908 24.7554 41.9848 24.0752 42.0863 24.0028C42.3485 23.8163 42.7037 23.7136 43.0866 23.7136H51.5943C52.4599 23.7136 53.1614 23.0119 53.1614 22.1464C53.1614 21.281 52.4599 20.5795 51.5943 20.5795H43.0866C42.0431 20.5795 41.069 20.88 40.2694 21.4489C39.1511 22.2448 37.9565 23.9321 37.9565 26.2817C37.9565 30.1731 40.7425 31.7866 42.2347 32.1024L45.6926 32.8964C45.6957 32.8972 45.6992 32.8973 45.7023 32.8982L48.9448 33.6425L48.9802 33.6502C49.0535 33.6651 50.7754 34.0459 50.7754 36.4051C50.7754 37.9311 49.8812 38.6116 49.7794 38.6841Z" fill="white"/>
<path fill-rule="evenodd" clip-rule="evenodd" d="M16.2832 42.0734C17.0958 42.3709 17.9958 41.9529 18.2933 41.14L23.907 25.7911L29.5205 41.14C29.7529 41.7752 30.3531 42.1693 30.9926 42.1693C31.1713 42.1693 31.3531 42.1383 31.5306 42.0734C32.3434 41.7761 32.7616 40.8763 32.4643 40.0634L25.7926 21.8228C25.502 21.027 24.7617 20.5132 23.907 20.5132C23.0521 20.5132 22.312 21.027 22.0212 21.8224L15.3497 40.0634C15.0524 40.8763 15.4704 41.7761 16.2832 42.0734Z" fill="white"/>
<path fill-rule="evenodd" clip-rule="evenodd" d="M31.4458 47.9132C30.7845 47.7134 30.0702 47.9699 29.6878 48.5452L23.9069 57.2323L18.126 48.5452C17.7434 47.9701 17.0294 47.7137 16.3679 47.9132C15.7067 48.1132 15.2544 48.7224 15.2544 49.4132V67.9046C15.2544 68.77 15.9559 69.4717 16.8213 69.4717C17.6869 69.4717 18.3885 68.77 18.3885 67.9046V54.5972L22.6022 60.9292C22.8928 61.3659 23.3823 61.6282 23.9069 61.6282C24.4313 61.6282 24.921 61.3659 25.2114 60.9292L29.4251 54.5972V67.9046C29.4251 68.77 30.1269 69.4717 30.9923 69.4717C31.8577 69.4717 32.5592 68.77 32.5592 67.9046V49.4132C32.5592 48.7224 32.107 48.1132 31.4458 47.9132Z" fill="white"/>
<path fill-rule="evenodd" clip-rule="evenodd" d="M73.7168 47.9264C72.9039 47.6289 72.004 48.0469 71.7067 48.8598L66.093 64.2087L60.4794 48.8598C60.1821 48.0471 59.2818 47.6297 58.4695 47.9264C57.6566 48.2237 57.2384 49.1235 57.5357 49.9365L64.2073 68.1774C64.4981 68.9729 65.2383 69.4868 66.093 69.4868C66.9478 69.4868 67.6882 68.9729 67.9788 68.1777L74.6503 49.9365C74.9476 49.1235 74.5296 48.2237 73.7168 47.9264Z" fill="white"/>
</svg>
