   <svg
              width="300"
              height="150"
              viewBox="0 0 450 150"
              fill="none"
              xmlns="http://www.w3.org/2000/svg"
            >
              <path
                fill-rule="evenodd"
                clip-rule="evenodd"
                d="M308.782 97.166C297.885 97.166 289.019 86.9349 289.019 74.3591C289.019 61.7839 297.885 51.5527 308.782 51.5527C319.68 51.5527 328.544 61.7839 328.544 74.3591C328.544 86.9349 319.68 97.166 308.782 97.166ZM308.782 42.2432C292.716 42.2432 279.645 56.6507 279.645 74.3591C279.645 92.068 292.716 106.475 308.782 106.475C324.849 106.475 337.919 92.068 337.919 74.3591C337.919 56.6507 324.849 42.2432 308.782 42.2432Z"
                fill="white"
              />
              <path
                fill-rule="evenodd"
                clip-rule="evenodd"
                d="M179.352 51.4226H188.057V101.553C188.057 104.124 190.156 106.208 192.745 106.208C195.334 106.208 197.432 104.124 197.432 101.553V46.7681C197.432 44.1972 195.334 42.1131 192.745 42.1131H179.352C176.763 42.1131 174.665 44.1972 174.665 46.7681C174.665 49.3385 176.763 51.4226 179.352 51.4226Z"
                fill="white"
              />
              <path
                fill-rule="evenodd"
                clip-rule="evenodd"
                d="M151.968 95.9711C151.184 96.5246 150.122 96.8295 148.976 96.8295H121.221C118.631 96.8295 116.533 98.9141 116.533 101.485C116.533 104.055 118.631 106.139 121.221 106.139H148.976C152.097 106.139 155.012 105.246 157.403 103.556C160.747 101.192 164.322 96.1805 164.322 89.2021C164.322 77.6436 155.987 72.8511 151.524 71.9135L141.182 69.5554C141.176 69.5544 141.171 69.5544 141.166 69.5534L131.421 67.3314C130.512 67.1138 125.98 65.6956 125.98 59.1336C125.98 54.6003 128.654 52.5799 128.957 52.3647C129.742 51.8107 130.804 51.5058 131.949 51.5058H157.396C159.985 51.5058 162.084 49.4217 162.084 46.8508C162.084 44.2803 159.985 42.1968 157.396 42.1968H131.949C128.828 42.1968 125.914 43.0894 123.523 44.7793C120.178 47.1432 116.605 52.1548 116.605 59.1336C116.605 70.6917 124.938 75.4842 129.401 76.4223L139.744 78.7804C139.753 78.7828 139.764 78.7833 139.773 78.7857L149.472 80.9967L149.577 81.0194C149.797 81.0638 154.947 82.1948 154.947 89.2021C154.947 93.7346 152.272 95.7559 151.968 95.9711Z"
                fill="white"
              />
              <path
                fill-rule="evenodd"
                clip-rule="evenodd"
                d="M58.0786 106.038C60.5092 106.922 63.2012 105.68 64.0909 103.266L80.882 57.6765L97.6726 103.266C98.3675 105.152 100.163 106.323 102.076 106.323C102.61 106.323 103.154 106.231 103.685 106.038C106.116 105.155 107.367 102.483 106.478 100.068L86.5221 45.8897C85.6528 43.5262 83.4384 42 80.882 42C78.3251 42 76.1112 43.5262 75.2414 45.8887L55.2865 100.068C54.3972 102.483 55.6475 105.155 58.0786 106.038Z"
                fill="white"
              />
              <path
                fill-rule="evenodd"
                clip-rule="evenodd"
                d="M265.486 42.4424C263.508 41.8488 261.372 42.6108 260.228 44.3194L242.937 70.1219L225.645 44.3194C224.501 42.6113 222.366 41.8498 220.387 42.4424C218.409 43.0364 217.056 44.8459 217.056 46.8976V101.821C217.056 104.391 219.155 106.475 221.743 106.475C224.332 106.475 226.431 104.391 226.431 101.821V62.2952L239.034 81.1024C239.903 82.3994 241.368 83.1787 242.937 83.1787C244.505 83.1787 245.97 82.3994 246.839 81.1024L259.442 62.2952V101.821C259.442 104.391 261.541 106.475 264.13 106.475C266.718 106.475 268.816 104.391 268.816 101.821V46.8976C268.816 44.8459 267.464 43.0364 265.486 42.4424Z"
                fill="white"
              />
              <path
                fill-rule="evenodd"
                clip-rule="evenodd"
                d="M391.921 42.4815C389.49 41.598 386.798 42.8395 385.909 45.2541L369.118 90.8433L352.327 45.2541C351.438 42.84 348.745 41.6004 346.316 42.4815C343.884 43.3645 342.633 46.0373 343.522 48.4518L363.478 102.631C364.348 104.994 366.562 106.52 369.118 106.52C371.675 106.52 373.889 104.994 374.759 102.632L394.713 48.4518C395.603 46.0373 394.352 43.3645 391.921 42.4815Z"
                fill="white"
              />
              <path
                d="M395 100.686C395 103.954 392.451 106.52 389.183 106.52C385.915 106.52 383.401 103.96 383.401 100.721C383.401 97.4818 385.915 94.9211 389.218 94.9211C392.521 94.9211 395 97.4175 395 100.686ZM394.228 100.686C394.228 97.8267 392.106 95.6577 389.218 95.6577C386.33 95.6577 384.173 97.891 384.173 100.721C384.173 103.55 386.324 105.784 389.183 105.784C392.042 105.784 394.228 103.55 394.228 100.691V100.686ZM390.779 101.691L392.276 104.006H391.141L389.779 101.902H387.99V104.006H386.874V97.435H389.504C391.147 97.435 392.165 98.3061 392.165 99.6683C392.165 100.668 391.656 101.375 390.785 101.691H390.779ZM391.071 99.6683C391.071 98.8323 390.463 98.3704 389.411 98.3704H387.967V100.984H389.411C390.463 100.984 391.071 100.51 391.071 99.6683Z"
                fill="white"
              />
            </svg>